<?xml version="1.0" encoding="utf-8"?>
<!-- Generator: Adobe Illustrator 16.0.0, SVG Export Plug-In . SVG Version: 6.00 Build 0)  -->
<!DOCTYPE svg PUBLIC "-//W3C//DTD SVG 1.1//EN" "http://www.w3.org/Graphics/SVG/1.1/DTD/svg11.dtd">
<svg xmlns="http://www.w3.org/2000/svg" xmlns:xlink="http://www.w3.org/1999/xlink" version="1.1" id="Layer_1" x="0px" y="0px" width="1400px" height="980px" viewBox="0 0 1400 980" enable-background="new 0 0 1400 980" xml:space="preserve">
<g>
	<g>
		<g>
			
		</g>
	</g>
	<g>
		<g>
			<g>
				<path fill="#FFFFFF" d="M590.2,530l0,9.3c0,23.1,18.8,41.9,41.9,41.9c23.2,0,41.9-18.8,41.9-41.9V530H590.2z"/>
				<path d="M632.1,584.2L632.1,584.2L632.1,584.2c-24.8,0-45-20.1-45-44.9l0-9.3c0-0.8,0.3-1.6,0.9-2.1c0.6-0.6,1.3-0.9,2.1-0.9      H674c1.7,0,3,1.4,3,3v9.2c0,12-4.7,23.3-13.2,31.8C655.4,579.5,644.1,584.2,632.1,584.2z M593.2,533.1l0,6.2      c0,21.4,17.4,38.8,38.9,38.8h0c10.4,0,20.1-4,27.5-11.4c7.3-7.3,11.4-17.1,11.4-27.5v-6.2H593.2z"/>
			</g>
			<g>
				<rect x="577.8" y="257.7" fill="#FFA390" width="108.5" height="272.4"/>
				<path d="M686.4,533.1H577.8c-1.7,0-3-1.4-3-3V257.7c0-1.7,1.4-3,3-3h108.5c1.7,0,3,1.4,3,3V530      C689.4,531.7,688,533.1,686.4,533.1z M580.9,527h102.5V260.7H580.9V527z"/>
			</g>
			<g>
				<line fill="#FFFFFF" x1="608" y1="257.7" x2="608" y2="460.7"/>
				<path d="M608,463.7c-1.7,0-3-1.4-3-3v-203c0-1.7,1.4-3,3-3c1.7,0,3,1.4,3,3v203C611,462.4,609.7,463.7,608,463.7z"/>
			</g>
			<g>
				<line fill="#FFFFFF" x1="651.4" y1="257.7" x2="651.4" y2="530"/>
				<path d="M651.4,533.1c-1.7,0-3-1.4-3-3V257.7c0-1.7,1.4-3,3-3c1.7,0,3,1.4,3,3V530C654.4,531.7,653.1,533.1,651.4,533.1z"/>
			</g>
		</g>
		<g>
			<g>
				<polygon fill="#A7A9AC" points="654.8,210.2 651.4,205.1 633.1,177.6 617.7,199.8 617.1,200.8 640.3,217.6     "/>
				<path d="M640.3,220.7c-0.6,0-1.2-0.2-1.8-0.6l-23.2-16.8c-1.3-1-1.6-2.8-0.7-4.1l0.7-1l15.4-22.3c0.6-0.8,1.4-1.2,2.5-1.3      c1,0,1.9,0.5,2.5,1.4l21.7,32.6c0.5,0.7,0.6,1.6,0.4,2.4c-0.2,0.8-0.8,1.5-1.5,1.9l-14.5,7.5      C641.2,220.5,640.7,220.7,640.3,220.7z M621.2,200.1l19.3,14l9.8-5.1l-17.3-26L621.2,200.1z"/>
			</g>
			<g>
				<polygon fill="#FFFFFF" points="686.4,257.7 654.8,210.2 640.3,217.6 617.1,200.8 577.8,257.7     "/>
				<path d="M686.4,260.7H577.8c-1.1,0-2.2-0.6-2.7-1.6c-0.5-1-0.5-2.2,0.2-3.1l39.3-56.9c0.5-0.7,1.2-1.1,2-1.3      c0.8-0.1,1.6,0.1,2.3,0.5l21.7,15.7l12.8-6.6c1.4-0.7,3-0.3,3.9,1l31.6,47.5c0.6,0.9,0.7,2.1,0.1,3.1      C688.5,260.1,687.5,260.7,686.4,260.7z M583.6,254.6h97.1l-27-40.5l-12.1,6.2c-1,0.5-2.2,0.4-3.2-0.2l-20.7-15L583.6,254.6z"/>
			</g>
		</g>
	</g>
	<g>
		<g>
			<path fill="#82D8FF" d="M749.4,569.6c-6.7,0-12.1-5.5-12.1-12.1V189.7c0-6.7,5.5-12.1,12.1-12.1h84.9c6.7,0,12.1,5.4,12.1,12.1     v367.8c0,6.7-5.5,12.1-12.1,12.1H749.4z"/>
			<path d="M834.3,572.6h-84.9c-8.4,0-15.2-6.8-15.2-15.2V189.7c0-8.4,6.8-15.2,15.2-15.2h84.9c8.4,0,15.2,6.8,15.2,15.2v367.8     C849.4,565.8,842.6,572.6,834.3,572.6z M749.4,180.6c-5,0-9.1,4.1-9.1,9.1v367.8c0,5,4.1,9.1,9.1,9.1h84.9c5,0,9.1-4.1,9.1-9.1     V189.7c0-5-4.1-9.1-9.1-9.1H749.4z"/>
		</g>
		<g>
			<circle fill="#FFFFFF" cx="791.9" cy="205.6" r="12.9"/>
			<path d="M791.9,221.5c-8.8,0-15.9-7.1-15.9-15.9c0-8.8,7.1-15.9,15.9-15.9s15.9,7.1,15.9,15.9     C807.8,214.4,800.6,221.5,791.9,221.5z M791.9,195.8c-5.4,0-9.9,4.4-9.9,9.9c0,5.4,4.4,9.9,9.9,9.9s9.9-4.4,9.9-9.9     C801.7,200.2,797.3,195.8,791.9,195.8z"/>
		</g>
		<g>
			<path d="M830.2,246.5h-31.8c-1.7,0-3-1.4-3-3c0-1.7,1.4-3,3-3h31.8c1.7,0,3,1.4,3,3C833.3,245.1,831.9,246.5,830.2,246.5z"/>
		</g>
		<g>
			<path d="M830.2,283.9h-31.8c-1.7,0-3-1.4-3-3c0-1.7,1.4-3,3-3h31.8c1.7,0,3,1.4,3,3C833.3,282.6,831.9,283.9,830.2,283.9z"/>
		</g>
		<g>
			<path d="M830.2,321.4h-31.8c-1.7,0-3-1.4-3-3s1.4-3,3-3h31.8c1.7,0,3,1.4,3,3S831.9,321.4,830.2,321.4z"/>
		</g>
		<g>
			<path d="M830.2,358.9h-31.8c-1.7,0-3-1.4-3-3s1.4-3,3-3h31.8c1.7,0,3,1.4,3,3S831.9,358.9,830.2,358.9z"/>
		</g>
		<g>
			<path d="M830.2,396.4h-31.8c-1.7,0-3-1.4-3-3c0-1.7,1.4-3,3-3h31.8c1.7,0,3,1.4,3,3C833.3,395,831.9,396.4,830.2,396.4z"/>
		</g>
		<g>
			<path d="M830.2,433.8h-31.8c-1.7,0-3-1.4-3-3c0-1.7,1.4-3,3-3h31.8c1.7,0,3,1.4,3,3C833.3,432.5,831.9,433.8,830.2,433.8z"/>
		</g>
		<g>
			<path d="M830.2,471.3h-31.8c-1.7,0-3-1.4-3-3s1.4-3,3-3h31.8c1.7,0,3,1.4,3,3S831.9,471.3,830.2,471.3z"/>
		</g>
		<g>
			<path d="M830.2,508.7h-31.8c-1.7,0-3-1.4-3-3s1.4-3,3-3h31.8c1.7,0,3,1.4,3,3S831.9,508.7,830.2,508.7z"/>
		</g>
		<g>
			<path d="M830.2,546.2h-31.8c-1.7,0-3-1.4-3-3c0-1.7,1.4-3,3-3h31.8c1.7,0,3,1.4,3,3C833.3,544.9,831.9,546.2,830.2,546.2z"/>
		</g>
	</g>
	<g>
		<g>
			<path fill="#9E8E62" d="M881.9,668.4V393.2c0-10-8.2-18.2-18.2-18.2H560.6c-10,0-18.2,8.2-18.2,18.2v275.2H881.9z"/>
		</g>
		<g>
			<path fill="#9E8E62" d="M881.9,668.4V393.2c0-10-8.2-18.2-18.2-18.2H560.6c-10,0-18.2,8.2-18.2,18.2v275.2H881.9z"/>
			<path d="M881.9,671.5H542.4c-1.7,0-3-1.4-3-3V393.2c0-11.7,9.5-21.2,21.2-21.2h303.1c11.7,0,21.2,9.5,21.2,21.2v275.2     C884.9,670.1,883.5,671.5,881.9,671.5z M545.4,665.4h333.4V393.2c0-8.4-6.8-15.2-15.2-15.2H560.6c-8.4,0-15.2,6.8-15.2,15.2     V665.4z"/>
		</g>
	</g>
	<g>
		<rect x="508" y="668.4" fill="#8F8059" width="408.2" height="56.6"/>
		<path d="M916.2,728.1H508c-1.7,0-3-1.4-3-3v-56.6c0-1.7,1.4-3,3-3h408.2c1.7,0,3,1.4,3,3V725C919.2,726.7,917.9,728.1,916.2,728.1    z M511.1,722h402.1v-50.5H511.1V722z"/>
	</g>
	<g>
		<g>
			<path fill="#82D8FF" d="M936.4,589.9c0,16.6,13.5,30.1,30.1,30.1h76.1c16.6,0,30.1-13.5,30.1-30.1V467.4H936.4V589.9z"/>
			<path d="M1042.6,623h-76.1c-18.3,0-33.1-14.9-33.1-33.1V467.4c0-1.7,1.4-3,3-3h136.3c1.7,0,3,1.4,3,3v122.5     C1075.7,608.1,1060.8,623,1042.6,623z M939.4,470.4v119.4c0,14.9,12.1,27.1,27.1,27.1h76.1c14.9,0,27.1-12.1,27.1-27.1V470.4     H939.4z"/>
		</g>
		<g>
			<path fill="#FFA390" d="M1042.6,314.8h-76.1c-16.6,0-30.1,13.5-30.1,30.1v122.5h136.3V344.9     C1072.7,328.3,1059.2,314.8,1042.6,314.8z"/>
			<path d="M1072.7,470.4H936.4c-1.7,0-3-1.4-3-3V344.9c0-18.3,14.9-33.1,33.1-33.1h76.1c18.3,0,33.1,14.9,33.1,33.1v122.5     C1075.7,469.1,1074.3,470.4,1072.7,470.4z M939.4,464.4h130.2V344.9c0-14.9-12.1-27.1-27.1-27.1h-76.1     c-14.9,0-27.1,12.1-27.1,27.1V464.4z"/>
		</g>
	</g>
	<g>
		<path d="M1051.5,343.3h-93.9c-1.7,0-3-1.4-3-3c0-1.7,1.4-3,3-3h93.9c1.7,0,3,1.4,3,3C1054.5,342,1053.1,343.3,1051.5,343.3z"/>
	</g>
	<g>
		<path d="M1051.5,597.5h-93.9c-1.7,0-3-1.4-3-3c0-1.7,1.4-3,3-3h93.9c1.7,0,3,1.4,3,3C1054.5,596.2,1053.1,597.5,1051.5,597.5z"/>
	</g>
	<g>
		<g>
			<path fill="#F1F2F2" d="M445.7,467.4c0-29.2,15.1-54.9,37.8-69.8v-53.4H286.1v53.4c22.8,14.9,37.8,40.6,37.8,69.8    c0,29.2-15.1,54.9-37.8,69.8v53.4h197.4v-53.4C460.8,522.3,445.7,496.6,445.7,467.4z"/>
			<path d="M483.6,593.6H286.1c-1.7,0-3-1.4-3-3v-53.4c0-1,0.5-2,1.4-2.5c22.8-14.9,36.4-40.1,36.4-67.3c0-27.2-13.6-52.3-36.4-67.3    c-0.9-0.6-1.4-1.5-1.4-2.5v-53.4c0-1.7,1.4-3,3-3h197.4c1.7,0,3,1.4,3,3v53.4c0,1-0.5,2-1.4,2.5c-22.8,14.9-36.5,40.1-36.5,67.2    c0,27.2,13.6,52.3,36.5,67.3c0.9,0.6,1.4,1.5,1.4,2.5v53.4C486.6,592.3,485.2,593.6,483.6,593.6z M289.2,587.6h191.4v-48.8    c-23.7-16.2-37.8-42.7-37.8-71.4c0-28.7,14.1-55.2,37.8-71.4v-48.8H289.2V396c23.7,16.2,37.8,42.7,37.8,71.4s-14.1,55.2-37.8,71.4    V587.6z"/>
		</g>
		<g>
			<path d="M358.3,569c-1.7,0-3-1.4-3-3V368.8c0-1.7,1.4-3,3-3c1.7,0,3,1.4,3,3V566C361.3,567.6,359.9,569,358.3,569z"/>
		</g>
		<g>
			<polygon fill="#A7A9AC" points="420.6,467.4 397.9,467.4 397.9,490.2 420.6,467.4"/>
			<path d="M397.9,493.2c-14.2,0-25.8-11.6-25.8-25.8c0-14.2,11.6-25.8,25.8-25.8c14.2,0,25.8,11.6,25.8,25.8     C423.7,481.6,412.1,493.2,397.9,493.2z M397.9,447.7c-10.9,0-19.7,8.9-19.7,19.7s8.9,19.7,19.7,19.7c10.9,0,19.7-8.9,19.7-19.7     S408.7,447.7,397.9,447.7z"/>
		</g>
		<g>
			<path d="M1275.5,895.5H970.4c-1.7,0-3-1.4-3-3V678.3c0-1.7,1.4-3,3-3h305.1c1.7,0,3,1.4,3,3v214.2    C1278.6,894.1,1277.2,895.5,1275.5,895.5z M973.5,889.4h299.1V681.3H973.5V889.4z"/>
		</g>
		<g>
			<rect x="991.6" y="711.3" fill="#FFA390" width="151.6" height="151.6"/>
			<path d="M1143.2,865.9H991.6c-1.7,0-3-1.4-3-3V711.3c0-1.7,1.4-3,3-3h151.6c1.7,0,3,1.4,3,3v151.6    C1146.2,864.5,1144.9,865.9,1143.2,865.9z M994.6,859.8h145.5V714.3H994.6V859.8z"/>
		</g>
		<g>
			<g>
				<path fill="#FFFFFF" d="M1067.4,742.3c-14.2,0-25.7,11.5-25.7,25.7c0,14.2,11.5,25.7,25.7,25.7s25.7-11.5,25.7-25.7     C1093.1,753.7,1081.6,742.3,1067.4,742.3z"/>
				<path d="M1067.4,796.6c-15.8,0-28.7-12.9-28.7-28.7c0-15.8,12.9-28.7,28.7-28.7c15.8,0,28.7,12.9,28.7,28.7     C1096.1,783.8,1083.2,796.6,1067.4,796.6z M1067.4,745.3c-12.5,0-22.6,10.2-22.6,22.6c0,12.5,10.2,22.6,22.6,22.6     c12.5,0,22.6-10.2,22.6-22.6C1090,755.4,1079.9,745.3,1067.4,745.3z"/>
			</g>
			<g>
				<polygon fill="#FFFFFF" points="1080.7,803.1 1054.1,803.1 1067.4,826.1    "/>
				<path d="M1067.4,829.2c-1.1,0-2.1-0.6-2.6-1.5l-13.3-23.1c-0.5-0.9-0.5-2.1,0-3c0.5-0.9,1.5-1.5,2.6-1.5h26.7     c1.1,0,2.1,0.6,2.6,1.5c0.5,0.9,0.5,2.1,0,3l-13.3,23.1C1069.5,828.6,1068.5,829.2,1067.4,829.2z M1059.3,806.1l8.1,14l8.1-14     H1059.3z"/>
			</g>
			<g>
				<polygon fill="#FFFFFF" points="1116.4,862.8 1116.4,803.1 1080.7,803.1 1067.4,826.1 1054.1,803.1 1018.4,803.1 1018.4,862.8         "/>
				<path d="M1116.4,865.9h-97.9c-1.7,0-3-1.4-3-3v-59.8c0-1.7,1.4-3,3-3h35.6c1.1,0,2.1,0.6,2.6,1.5l10.7,18.5l10.7-18.5     c0.5-0.9,1.5-1.5,2.6-1.5h35.6c1.7,0,3,1.4,3,3v59.8C1119.4,864.5,1118,865.9,1116.4,865.9z M1021.5,859.8h91.9v-53.7h-30.9     l-12.4,21.6c-1.1,1.9-4.2,1.9-5.2,0l-12.5-21.6h-30.9V859.8z"/>
			</g>
		</g>
		<g>
			<path d="M1318,737.4h-152.6c-1.7,0-3-1.4-3-3c0-1.7,1.4-3,3-3H1318c1.7,0,3,1.4,3,3C1321,736.1,1319.7,737.4,1318,737.4z"/>
		</g>
		<g>
		<path d="M1318,772.5h-152.6c-1.7,0-3-1.4-3-3c0-1.7,1.4-3,3-3H1318c1.7,0,3,1.4,3,3C1321,771.2,1319.7,772.5,1318,772.5z"/>
		</g>
		<g>
			<path d="M1318,807.7h-152.6c-1.7,0-3-1.4-3-3c0-1.7,1.4-3,3-3H1318c1.7,0,3,1.4,3,3C1321,806.3,1319.7,807.7,1318,807.7z"/>
		</g>
		<g>
			<path d="M1318,842.8h-152.6c-1.7,0-3-1.4-3-3c0-1.7,1.4-3,3-3H1318c1.7,0,3,1.4,3,3C1321,841.4,1319.7,842.8,1318,842.8z"/>
		</g>
		<g>
			<g>
				<path fill="#FFFFFF" d="M1259.5,594.1l8.3,33.8c0,0,6.3,8.1,14.1,5.3l-4.3-36.6L1259.5,594.1z"/>
				<path d="M1278.7,636.8L1278.7,636.8c-7.6,0-13-6.8-13.2-7.1c-0.3-0.3-0.5-0.7-0.6-1.1l-8.3-33.8c-0.2-1,0-2,0.7-2.8     c0.7-0.7,1.6-1.1,2.7-1l18.2,2.5c1.4,0.2,2.4,1.3,2.6,2.6l4.3,36.6c0.2,1.4-0.7,2.7-2,3.2     C1281.6,636.6,1280.2,636.8,1278.7,636.8z M1270.7,626.5c1.1,1.2,4.3,4.3,8,4.3l-3.7-31.5l-11.4-1.6L1270.7,626.5z"/>
			</g>
			<g>
				<path fill="#FFFFFF" d="M1231,222v-61.1c0-10.1-8.2-18.3-18.3-18.3s-18.3,8.2-18.3,18.3V222c5.7-2.2,11.8-3.5,18.3-3.5     C1219.2,218.6,1225.4,219.8,1231,222z"/>
				<path d="M1231,225.1c-0.4,0-0.7-0.1-1.1-0.2c-11.1-4.3-23.2-4.3-34.3,0c-0.9,0.4-2,0.2-2.8-0.3c-0.8-0.6-1.3-1.5-1.3-2.5v-61.1     c0-11.7,9.5-21.3,21.3-21.3c11.7,0,21.3,9.5,21.3,21.3V222c0,1-0.5,1.9-1.3,2.5C1232.2,224.9,1231.6,225.1,1231,225.1z      M1212.8,145.7c-8.4,0-15.2,6.8-15.2,15.2v56.9c9.9-3,20.5-3,30.4,0v-56.9C1228,152.5,1221.2,145.7,1212.8,145.7z"/>
			</g>
			<g>
				<line fill="#FFFFFF" x1="1146.9" y1="605.7" x2="1143.2" y2="639.6"/>
				<path d="M1143.2,642.6c-0.1,0-0.2,0-0.3,0c-1.7-0.2-2.9-1.7-2.7-3.3l3.7-33.9c0.2-1.7,1.7-2.8,3.3-2.7c1.7,0.2,2.9,1.7,2.7,3.3     l-3.7,33.9C1146,641.4,1144.7,642.6,1143.2,642.6z"/>
			</g>
			<g>
				<line fill="#FFFFFF" x1="1184.7" y1="268.5" x2="1240.9" y2="268.5"/>
				<path d="M1240.9,271.5h-56.1c-1.7,0-3-1.4-3-3c0-1.7,1.4-3,3-3h56.1c1.7,0,3,1.4,3,3C1243.9,270.2,1242.5,271.5,1240.9,271.5z"/>
			</g>
			<g>
				<line fill="#FFFFFF" x1="1212.8" y1="240.4" x2="1212.8" y2="296.6"/>
				<path d="M1212.8,299.6c-1.7,0-3-1.4-3-3v-56.1c0-1.7,1.4-3,3-3s3,1.4,3,3v56.1C1215.8,298.3,1214.5,299.6,1212.8,299.6z"/>
			</g>
		</g>
	</g>
	<g>
		<path d="M410.7,634.8H286.1c-1.7,0-3-1.4-3-3c0-1.7,1.4-3,3-3h124.6c1.7,0,3,1.4,3,3C413.7,633.5,412.4,634.8,410.7,634.8z"/>
	</g>
	<g>
		<path d="M415.3,681.3H290.7c-1.7,0-3-1.4-3-3c0-1.7,1.4-3,3-3h124.6c1.7,0,3,1.4,3,3C418.3,679.9,416.9,681.3,415.3,681.3z"/>
	</g>
	<g>
		<path d="M465.5,727.9h-75c-1.7,0-3-1.4-3-3c0-1.7,1.4-3,3-3h75c1.7,0,3,1.4,3,3C468.5,726.5,467.1,727.9,465.5,727.9z"/>
	</g>
	<g>
		<g>
			<path fill="#FFFFFF" d="M1259.5,594.1l8.3,33.8c0,0,6.3,8.1,14.1,5.3l-4.3-36.6L1259.5,594.1z"/>
			<path d="M1278.7,636.8L1278.7,636.8c-7.6,0-13-6.8-13.2-7.1c-0.3-0.3-0.5-0.7-0.6-1.1l-8.3-33.8c-0.2-1,0-2,0.7-2.8     c0.7-0.7,1.6-1.1,2.7-1l18.2,2.5c1.4,0.2,2.4,1.3,2.6,2.6l4.3,36.6c0.2,1.4-0.7,2.7-2,3.2     C1281.6,636.6,1280.2,636.8,1278.7,636.8z M1270.7,626.5c1.1,1.2,4.3,4.3,8,4.3l-3.7-31.5l-11.4-1.6L1270.7,626.5z"/>
			</g>
			<g>
				<path fill="#FFFFFF" d="M1231,222v-61.1c0-10.1-8.2-18.3-18.3-18.3s-18.3,8.2-18.3,18.3V222c5.7-2.2,11.8-3.5,18.3-3.5     C1219.2,218.6,1225.4,219.8,1231,222z"/>
				<path d="M1231,225.1c-0.4,0-0.7-0.1-1.1-0.2c-11.1-4.3-23.2-4.3-34.3,0c-0.9,0.4-2,0.2-2.8-0.3c-0.8-0.6-1.3-1.5-1.3-2.5v-61.1     c0-11.7,9.5-21.3,21.3-21.3c11.7,0,21.3,9.5,21.3,21.3V222c0,1-0.5,1.9-1.3,2.5C1232.2,224.9,1231.6,225.1,1231,225.1z      M1212.8,145.7c-8.4,0-15.2,6.8-15.2,15.2v56.9c9.9-3,20.5-3,30.4,0v-56.9C1228,152.5,1221.2,145.7,1212.8,145.7z"/>
			</g>
			<g>
				<line fill="#FFFFFF" x1="1146.9" y1="605.7" x2="1143.2" y2="639.6"/>
				<path d="M1143.2,642.6c-0.1,0-0.2,0-0.3,0c-1.7-0.2-2.9-1.7-2.7-3.3l3.7-33.9c0.2-1.7,1.7-2.8,3.3-2.7c1.7,0.2,2.9,1.7,2.7,3.3     l-3.7,33.9C1146,641.4,1144.7,642.6,1143.2,642.6z"/>
			</g>
			<g>
				<line fill="#FFFFFF" x1="1184.7" y1="268.5" x2="1240.9" y2="268.5"/>
				<path d="M1240.9,271.5h-56.1c-1.7,0-3-1.4-3-3c0-1.7,1.4-3,3-3h56.1c1.7,0,3,1.4,3,3C1243.9,270.2,1242.5,271.5,1240.9,271.5z"/>
			</g>
			<g>
				<line fill="#FFFFFF" x1="1212.8" y1="240.4" x2="1212.8" y2="296.6"/>
				<path d="M1212.8,299.6c-1.7,0-3-1.4-3-3v-56.1c0-1.7,1.4-3,3-3s3,1.4,3,3v56.1C1215.8,298.3,1214.5,299.6,1212.8,299.6z"/>
			</g>
		</g>
	</g>
	<g>
		<rect x="286.1" y="89.7" fill="#FFFFFF" width="232.7" height="184.9"/>
		<path d="M518.8,277.7H286.1c-1.7,0-3-1.4-3-3V89.7c0-1.7,1.4-3,3-3h232.7c1.7,0,3,1.4,3,3v184.9    C521.9,276.3,520.5,277.7,518.8,277.7z M289.2,271.6h226.7V92.7H289.2V271.6z"/>
	</g>
	<g>
		<path d="M773.8,92.7H575.8c-1.7,0-3-1.4-3-3s1.4-3,3-3h198.1c1.7,0,3,1.4,3,3S775.5,92.7,773.8,92.7z"/>
	</g>
	<g>
		<path d="M642.6,145.7h-66.8c-1.7,0-3-1.4-3-3c0-1.7,1.4-3,3-3h66.8c1.7,0,3,1.4,3,3C645.6,144.3,644.3,145.7,642.6,145.7z"/>
	</g>
	<g>
		<path d="M875.4,145.7H773.8c-1.7,0-3-1.4-3-3c0-1.7,1.4-3,3-3h101.5c1.7,0,3,1.4,3,3C878.4,144.3,877,145.7,875.4,145.7z"/>
	</g>
	<g>
		<path d="M1026,283.9c-58.7,0-106.4-47.7-106.4-106.4c0-58.7,47.7-106.4,106.4-106.4c8.2,0,16.6,1,25,3.1c1.1,0.3,1.9,1.1,2.2,2.1    c0.3,1.1,0,2.2-0.8,3l-50.5,50.5l-17.9,89l90.4-16.6l50.1-50.1c0.8-0.8,1.9-1.1,3-0.8c1.1,0.3,1.9,1.2,2.1,2.2    c1.8,8,2.8,16.1,2.8,23.9C1132.4,236.2,1084.7,283.9,1026,283.9z M1026,77.3c-55.3,0-100.3,45-100.3,100.3    c0,55.3,45,100.3,100.3,100.3c55.3,0,100.3-45,100.3-100.3c0-5.6-0.5-11.3-1.5-17l-46.8,46.8c-0.4,0.4-1,0.7-1.6,0.8l-95.7,17.5    c-1,0.2-2-0.1-2.7-0.9c-0.7-0.7-1-1.7-0.8-2.7l19-94.3c0.1-0.6,0.4-1.1,0.8-1.5l47.3-47.3C1038.1,77.9,1032,77.3,1026,77.3z"/>
	</g>
	<g>
		<path fill="#FFA390" d="M1054.5,183.9l59.7-59.8c-7.6-12.5-17.7-23.3-29.8-31.6l-60.7,60.7l60.7-60.7c-10.2-7-21.8-12.2-34.2-15.2    l-51.2,51.2l76.7,76.7l50.8-50.8c-2.5-10.9-6.7-21-12.3-30.3L1054.5,183.9z"/>
		<path d="M1075.9,208.2c-0.8,0-1.6-0.3-2.1-0.9L997,130.6c-1.2-1.2-1.2-3.1,0-4.3l51.2-51.2c0.7-0.7,1.8-1,2.9-0.8    c12.8,3.1,24.6,8.3,35.2,15.7c0,0,0,0,0,0c12.4,8.5,22.7,19.5,30.6,32.6c0,0,0,0,0,0c5.9,9.7,10.2,20.2,12.7,31.2    c0.2,1-0.1,2.1-0.8,2.8l-50.8,50.8C1077.4,207.9,1076.7,208.2,1075.9,208.2z M1058.8,183.9l17,17l47.4-47.4    c-2.1-8.5-5.3-16.7-9.6-24.4L1058.8,183.9z M1028.1,153.2l26.4,26.4l55.9-55.9c-6.8-10.7-15.4-19.9-25.6-27.3L1028.1,153.2z     M1003.4,128.4l20.4,20.4l55.9-55.9c-8.7-5.6-18.3-9.7-28.5-12.3L1003.4,128.4z"/>
	</g>
	<g>
		<polygon fill="#A7A9AC" points="987.9,184.4 986.7,190.3 980.1,222.7 1006.7,217.8 1007.9,217.6 1003.4,189.3   "/>
		<path d="M980.1,225.7c-0.8,0-1.6-0.3-2.2-0.9c-0.7-0.7-1-1.7-0.8-2.7l7.7-38.3c0.2-0.8,0.7-1.6,1.4-2c0.7-0.4,1.6-0.5,2.5-0.3    l15.5,5c1.1,0.3,1.9,1.3,2.1,2.4l4.5,28.3c0.3,1.6-0.8,3.1-2.4,3.5l-27.8,5.1C980.5,225.7,980.3,225.7,980.1,225.7z M990.2,188.3    l-6.2,30.6l20.4-3.7l-3.7-23.5L990.2,188.3z"/>
	</g>
	<g>
		<polygon fill="#FFFFFF" points="1003.4,189.3 1007.9,217.6 1075.9,205.2 999.1,128.4 987.9,184.4   "/>
		<path d="M1007.9,220.7c-0.6,0-1.2-0.2-1.8-0.6c-0.7-0.5-1.1-1.2-1.2-2l-4.2-26.4l-13.8-4.4c-1.5-0.5-2.4-2-2-3.5l11.2-55.9    c0.2-1.1,1-2,2.1-2.3c1.1-0.3,2.2,0,3,0.8L1078,203c0.8,0.8,1.1,2,0.8,3c-0.3,1.1-1.2,1.9-2.4,2.1l-68,12.4    C1008.3,220.6,1008.1,220.7,1007.9,220.7z M991.4,182.3l12.9,4.1c1.1,0.3,1.9,1.3,2.1,2.4l4,25.2l59.2-10.8l-68.7-68.7    L991.4,182.3z"/>
	</g>
	<g>
		<path d="M875.4,92.7h-56.2c-1.7,0-3-1.4-3-3s1.4-3,3-3h56.2c1.7,0,3,1.4,3,3S877,92.7,875.4,92.7z"/>
	</g>
	<g>
		<path d="M1249.8,92.7h-74c-1.7,0-3-1.4-3-3s1.4-3,3-3h74c1.7,0,3,1.4,3,3S1251.5,92.7,1249.8,92.7z"/>
	</g>
	<g>
		<path d="M1318,145.7h-58.4c-1.7,0-3-1.4-3-3c0-1.7,1.4-3,3-3h58.4c1.7,0,3,1.4,3,3C1321,144.3,1319.7,145.7,1318,145.7z"/>
	</g>
	<g>
		<rect x="309.4" y="114.8" fill="#FFA390" width="78" height="78"/>
		<path d="M387.5,195.9h-78c-1.7,0-3-1.4-3-3v-78c0-1.7,1.4-3,3-3h78c1.7,0,3,1.4,3,3v78C390.5,194.5,389.1,195.9,387.5,195.9z     M312.4,189.8h72v-72h-72V189.8z"/>
	</g>
	<g>
		<g>
			<line fill="#FFFFFF" x1="323.8" y1="153.8" x2="373.1" y2="153.8"/>
			<path d="M373.1,156.9h-49.3c-1.7,0-3-1.4-3-3s1.4-3,3-3h49.3c1.7,0,3,1.4,3,3S374.8,156.9,373.1,156.9z"/>
		</g>
		<g>
			<line fill="#FFFFFF" x1="348.4" y1="129.2" x2="348.4" y2="178.5"/>
			<path d="M348.4,181.5c-1.7,0-3-1.4-3-3v-49.3c0-1.7,1.4-3,3-3s3,1.4,3,3v49.3C351.5,180.2,350.1,181.5,348.4,181.5z"/>
		</g>
	</g>
	<g>
		<path d="M492,128.3h-76.8c-1.7,0-3-1.4-3-3s1.4-3,3-3H492c1.7,0,3,1.4,3,3S493.7,128.3,492,128.3z"/>
	</g>
	<g>
		<path d="M492,156.9h-76.8c-1.7,0-3-1.4-3-3s1.4-3,3-3H492c1.7,0,3,1.4,3,3S493.7,156.9,492,156.9z"/>
	</g>
	<g>
		<path d="M492,185.4h-76.8c-1.7,0-3-1.4-3-3c0-1.7,1.4-3,3-3H492c1.7,0,3,1.4,3,3C495.1,184.1,493.7,185.4,492,185.4z"/>
	</g>
	<g>
		<path d="M492,222.3H310c-1.7,0-3-1.4-3-3s1.4-3,3-3h182c1.7,0,3,1.4,3,3S493.7,222.3,492,222.3z"/>
	</g>
	<g>
		<path d="M380.8,249.6h-71.4c-1.7,0-3-1.4-3-3s1.4-3,3-3h71.4c1.7,0,3,1.4,3,3S382.5,249.6,380.8,249.6z"/>
	</g>
	<g>
		<rect x="580.8" y="490" fill="#B3A16E" width="270.7" height="22.9"/>
	</g>
	<g>
		<rect x="773.1" y="450.4" fill="#B3A16E" width="37.4" height="174.1"/>
	</g>
	<g>
		<rect x="704.2" y="450.4" fill="#B3A16E" width="37.4" height="174.1"/>
	</g>
	<g>
		<rect x="635.3" y="450.4" fill="#B3A16E" width="37.4" height="174.1"/>
	</g>
	<g>
		<rect x="580.8" y="566.6" fill="#B3A16E" width="270.7" height="23"/>
	</g>
	<g>
		<path d="M851.5,515.9H609.1c-1.7,0-3-1.4-3-3s1.4-3,3-3h242.5c1.7,0,3,1.4,3,3S853.2,515.9,851.5,515.9z"/>
	</g>
	<g>
		<path d="M851.5,592.7H609.1c-1.7,0-3-1.4-3-3c0-1.7,1.4-3,3-3h242.5c1.7,0,3,1.4,3,3C854.6,591.3,853.2,592.7,851.5,592.7z"/>
	</g>
	<g>
		<path d="M672.7,627.5c-1.7,0-3-1.4-3-3V429c0-1.7,1.4-3,3-3c1.7,0,3,1.4,3,3v195.5C675.7,626.2,674.4,627.5,672.7,627.5z"/>
	</g>
	<g>
		<path d="M741.7,627.5c-1.7,0-3-1.4-3-3V429c0-1.7,1.4-3,3-3c1.7,0,3,1.4,3,3v195.5C744.7,626.2,743.3,627.5,741.7,627.5z"/>
	</g>
	<g>
		<path d="M810.6,627.5c-1.7,0-3-1.4-3-3V429c0-1.7,1.4-3,3-3s3,1.4,3,3v195.5C813.7,626.2,812.3,627.5,810.6,627.5z"/>
	</g>
</g>
</svg>